<?xml version="1.0" standalone="no"?>
<!DOCTYPE svg PUBLIC "-//W3C//DTD SVG 20010904//EN"
 "http://www.w3.org/TR/2001/REC-SVG-20010904/DTD/svg10.dtd">
<svg version="1.0" xmlns="http://www.w3.org/2000/svg"
 width="512.000000pt" height="512.000000pt" viewBox="0 0 512.000000 512.000000"
 preserveAspectRatio="xMidYMid meet">

<g transform="translate(0.000000,512.000000) scale(0.100000,-0.100000)"
fill="#000000" stroke="none">
<path d="M3569 4580 c-79 -40 -249 -96 -365 -119 -188 -37 -297 -44 -714 -45
l-405 -1 -52 -29 c-29 -16 -92 -67 -140 -113 -49 -46 -108 -95 -133 -110 -323
-188 -434 -267 -556 -396 -89 -94 -94 -103 -220 -456 -36 -102 -97 -251 -134
-332 -122 -261 -135 -325 -112 -553 20 -208 10 -549 -24 -771 -21 -140 -27
-230 -35 -505 -5 -184 -12 -359 -15 -387 -6 -51 -5 -53 18 -53 87 1 538 276
857 522 58 46 178 155 267 243 133 134 168 163 205 174 24 7 64 24 89 38 l45
26 -51 -54 c-79 -83 -171 -195 -211 -255 -34 -51 -36 -60 -35 -123 1 -40 -4
-86 -13 -111 -29 -81 -22 -111 71 -305 47 -99 116 -233 152 -297 l67 -118 128
0 128 0 -19 28 c-10 15 -18 33 -16 40 1 7 0 8 -3 2 -3 -8 -9 -7 -19 1 -17 14
-19 33 -2 23 7 -4 8 -3 4 5 -4 6 -11 9 -16 6 -4 -3 -23 13 -40 35 -28 35 -30
43 -19 58 12 15 12 16 -2 5 -13 -11 -19 -10 -33 6 -9 10 -14 25 -11 34 4 8 2
18 -4 22 -7 4 -9 -1 -5 -12 3 -11 -4 -7 -20 11 -13 17 -22 35 -19 40 4 6 3 8
-2 4 -10 -9 -56 52 -49 64 3 5 1 7 -4 6 -14 -5 -64 60 -56 73 4 7 3 9 -3 6
-12 -7 -29 10 -35 33 -2 8 -12 22 -23 32 -11 9 -16 17 -12 18 5 0 1 8 -8 17
-14 14 -16 29 -12 88 8 101 25 145 67 173 30 21 44 23 95 19 78 -6 115 -25
158 -84 44 -59 287 -274 427 -377 17 -12 21 -20 13 -23 -7 -3 -13 -16 -13 -30
0 -24 1 -25 18 -10 9 8 31 21 47 27 74 29 425 138 462 144 39 7 40 7 36 -18
-11 -54 28 -117 106 -174 39 -28 41 -32 23 -41 -11 -6 -23 -7 -27 -3 -5 4 -6
2 -2 -3 6 -12 -85 -78 -108 -78 -8 0 -11 -5 -8 -10 4 -6 -1 -8 -11 -4 -11 5
-15 3 -10 -5 5 -8 2 -9 -10 -5 -10 4 -15 3 -11 -3 8 -12 -72 -53 -87 -44 -6 4
-8 3 -5 -3 7 -12 -54 -48 -126 -74 l-52 -18 77 -1 c70 0 81 3 140 36 34 21 71
37 81 36 9 0 15 3 13 7 -6 9 104 77 117 73 5 -1 6 2 3 7 -6 9 22 26 37 23 4
-1 7 2 7 7 0 25 75 54 173 67 133 18 157 24 157 35 0 5 -15 9 -34 9 -29 0 -37
6 -64 49 -31 50 -121 130 -179 158 -18 9 -30 20 -27 25 3 4 -2 5 -10 2 -11 -4
-17 3 -21 23 -3 15 -15 51 -26 78 -25 65 -25 131 1 173 19 31 48 36 36 6 -3
-7 0 -11 7 -9 14 6 87 -94 193 -265 42 -69 96 -149 118 -179 116 -152 118
-155 123 -222 4 -45 1 -75 -10 -102 l-16 -37 29 0 c27 0 29 4 40 56 22 105 -3
182 -89 283 -27 31 -83 112 -126 181 -89 143 -194 297 -236 345 l-29 33 17 66
c11 42 14 69 8 75 -6 5 -84 28 -175 51 -348 87 -393 102 -368 114 13 6 38 33
56 60 32 49 34 50 125 73 192 48 317 114 433 229 l76 74 28 -20 c59 -42 150
-78 177 -71 37 10 74 61 122 168 53 121 64 188 50 331 l-10 113 49 44 c27 24
62 69 78 99 l29 55 -25 26 c-25 26 -89 49 -172 61 -73 10 -70 27 20 119 147
150 216 257 342 535 118 260 141 378 62 322 -106 -76 -218 -45 -420 116 -106
85 -232 167 -330 216 -40 20 -72 40 -70 44 2 4 16 31 31 61 27 50 97 251 97
277 0 23 -26 21 -81 -6z m-17 -156 c-16 -44 -41 -98 -55 -121 -29 -45 -92 -82
-158 -90 -27 -4 -36 -9 -27 -14 17 -11 111 -11 140 0 48 18 223 -82 460 -261
172 -131 199 -143 319 -143 l97 0 -25 -70 c-36 -101 -169 -381 -210 -443 -78
-117 -168 -222 -246 -286 l-47 -38 -1 88 c-1 49 -4 103 -8 119 -6 28 -10 30
-56 33 -27 2 -57 10 -65 17 -26 24 -87 45 -128 45 -23 0 -63 -12 -100 -31 -46
-22 -72 -29 -104 -27 l-43 3 165 115 165 115 135 5 135 5 -95 61 c-129 84
-181 108 -213 100 -39 -9 -157 -116 -207 -186 -25 -35 -70 -97 -101 -140 l-56
-76 -84 8 c-101 9 -216 30 -364 65 l-110 26 -140 137 c-184 180 -227 195 -408
149 -80 -20 -240 -91 -284 -126 -22 -17 -17 -18 165 -20 103 -1 199 -6 214
-10 l26 -8 -32 -82 c-29 -73 -41 -89 -114 -158 -70 -66 -162 -187 -162 -213 0
-16 -92 -82 -113 -82 -11 0 -40 20 -64 45 -24 25 -43 44 -43 41 0 -7 32 -80
65 -151 58 -122 67 -170 72 -390 4 -156 1 -216 -11 -275 -15 -75 -91 -240
-112 -247 -16 -5 -78 99 -109 182 -14 37 -32 111 -40 164 -20 132 -20 372 1
463 10 42 12 74 7 79 -5 5 -53 12 -106 16 l-97 6 -19 66 c-76 256 -86 429 -36
571 43 122 206 349 437 606 144 161 238 248 303 281 l49 25 441 2 c365 2 458
5 545 20 143 24 280 59 386 100 62 23 90 30 92 21 2 -6 -10 -48 -26 -91z
m-1872 -369 c0 -3 -19 -27 -43 -53 -38 -42 -122 -147 -212 -267 -17 -22 -51
-72 -76 -112 -25 -40 -49 -70 -52 -67 -3 3 -4 -1 -4 -8 1 -7 -9 -46 -21 -85
-14 -45 -26 -119 -32 -195 -5 -68 -18 -158 -30 -202 -18 -69 -72 -187 -102
-223 -6 -7 -8 -19 -5 -27 4 -10 1 -13 -9 -9 -8 3 -14 -1 -14 -11 0 -9 -5 -26
-12 -39 -22 -43 -24 -52 -22 -117 2 -64 -11 -155 -26 -175 -3 -5 -15 -41 -25
-78 -27 -103 -15 -263 32 -436 19 -71 26 -122 27 -196 l1 -100 -57 -120 c-79
-169 -81 -177 -69 -295 7 -78 6 -119 -5 -192 -8 -50 -18 -97 -22 -102 -4 -6
-7 -18 -7 -26 0 -8 -4 -22 -10 -30 -7 -12 -6 -13 7 -3 8 7 17 11 20 8 3 -3 11
1 18 10 7 8 19 15 26 15 8 0 14 5 14 10 0 6 8 10 19 10 10 0 29 8 42 17 13 10
41 27 61 37 21 11 35 24 31 30 -3 6 -3 8 2 4 9 -8 55 14 79 37 9 9 16 12 16 7
0 -23 -491 -316 -504 -300 -2 1 0 35 5 73 4 39 10 194 13 345 4 258 14 377 46
550 18 95 24 543 10 671 -24 214 -13 290 67 464 97 211 127 285 175 420 118
337 125 350 211 441 88 94 182 167 331 261 107 66 106 66 106 58z m695 -686
c29 -13 267 -156 398 -238 35 -23 67 -41 71 -41 3 0 -18 30 -49 67 -30 37 -54
68 -52 69 1 1 70 -11 152 -27 83 -16 180 -32 218 -35 l67 -7 -16 -25 -17 -25
36 22 c28 17 48 21 93 19 l57 -3 -36 -43 c-38 -45 -122 -190 -115 -198 3 -2
30 13 60 35 l56 39 4 -82 c9 -158 92 -244 215 -221 47 8 103 65 121 121 24 74
26 183 5 247 -11 31 -18 57 -15 57 16 0 65 -48 92 -90 l32 -50 -4 -218 c-5
-204 -7 -222 -33 -302 -52 -161 -124 -281 -234 -391 -141 -141 -312 -211 -636
-260 -44 -6 -85 -17 -92 -23 -7 -6 -15 -45 -19 -86 l-6 -76 81 -52 c44 -29 83
-57 86 -62 8 -13 -42 -36 -118 -56 l-65 -16 -129 84 c-70 47 -176 113 -234
149 l-105 64 0 64 1 65 -60 21 c-119 42 -205 100 -270 182 l-42 54 13 57 c16
68 19 377 4 469 -6 34 -21 94 -35 134 -13 40 -23 74 -22 75 1 1 17 9 35 18 29
15 32 15 32 1 0 -23 17 -9 47 38 50 80 167 189 224 210 15 5 15 1 1 -51 -8
-32 -15 -100 -15 -153 -1 -84 2 -103 24 -145 64 -127 229 -159 320 -64 49 51
69 115 76 238 3 56 9 102 14 102 4 0 43 -35 87 -78 l79 -79 -9 45 c-4 25 -20
66 -35 91 -35 60 -177 203 -228 228 -58 29 -139 46 -199 41 l-52 -4 23 55 c12
31 23 62 23 69 0 13 9 10 95 -29z m1372 -234 c9 -24 -1 -27 -15 -5 -8 13 -8
20 -2 20 6 0 13 -7 17 -15z m114 -343 c41 -120 61 -247 63 -382 l1 -115 -55
-119 c-36 -77 -62 -121 -75 -126 -14 -5 -40 3 -86 25 -86 44 -93 53 -68 90 35
52 96 178 117 245 32 97 42 179 42 341 0 195 7 200 61 41z m162 31 c20 -8 37
-18 37 -22 0 -23 -92 -131 -112 -131 -4 0 -8 8 -8 18 0 11 -9 45 -20 77 -29
84 -28 88 23 80 23 -4 59 -14 80 -22z m-2505 -62 c10 -6 11 -18 3 -52 -6 -24
-11 -60 -11 -79 0 -34 0 -34 -15 -12 -35 50 -150 91 -210 76 -38 -9 -30 -20
23 -34 26 -6 62 -18 79 -27 27 -12 31 -18 23 -33 -22 -41 1 -100 38 -100 12 0
12 3 -1 23 -10 15 -12 29 -6 38 7 12 12 11 36 -3 28 -16 28 -18 31 -129 l3
-113 -21 19 c-12 11 -37 47 -55 80 -45 79 -75 107 -165 151 -77 37 -130 78
-130 101 0 15 111 68 185 88 56 15 173 19 193 6z m571 -913 l92 -45 -33 -28
c-64 -54 -207 -105 -295 -105 -40 0 -43 2 -38 23 9 40 25 201 25 259 0 93 3
93 84 13 57 -55 95 -82 165 -117z m-414 20 c5 4 5 1 1 -6 -6 -10 -11 -10 -22
-1 -8 6 -14 14 -14 16 0 3 6 0 13 -6 8 -6 18 -7 22 -3z m521 -136 c-3 -5 -16
-12 -28 -15 -22 -6 -22 -6 2 13 25 19 37 20 26 2z m712 -4 c-20 -30 -45 -34
-70 -11 -20 18 -20 18 18 24 70 11 68 11 52 -13z m-97 -55 c13 -15 12 -15 -8
-4 -24 12 -29 21 -14 21 5 0 15 -7 22 -17z m-504 -57 c180 -108 298 -188 295
-197 -1 -6 2 -8 7 -5 10 7 154 -93 211 -148 22 -20 39 -43 37 -49 -1 -7 4 -11
11 -9 8 1 30 -16 49 -38 54 -62 77 -53 128 48 20 41 26 64 23 106 -1 30 -5 53
-7 51 -2 -3 -16 15 -31 38 -36 56 -97 117 -162 162 -29 21 -44 34 -34 31 29
-10 251 -71 416 -114 167 -43 159 -31 103 -157 -68 -154 -89 -264 -59 -310 9
-13 16 -26 16 -28 0 -2 -28 -7 -62 -10 -35 -3 -121 -24 -192 -46 -71 -23 -132
-38 -135 -33 -10 15 -48 32 -71 32 -13 0 -27 11 -38 31 -9 17 -27 44 -39 59
-12 15 -19 31 -15 35 4 5 1 5 -6 1 -7 -4 -19 -2 -27 4 -9 7 -44 13 -78 13 -49
1 -72 -4 -99 -21 l-36 -22 -31 35 c-25 29 -30 42 -27 71 4 27 1 34 -9 31 -8
-4 -11 0 -8 12 4 15 -39 135 -54 151 -2 2 -9 -2 -14 -10 -9 -12 -10 -12 -5 3
3 10 -1 28 -9 40 -8 12 -15 17 -15 12 1 -27 23 -105 41 -144 11 -24 18 -45 15
-48 -3 -3 7 -16 22 -30 15 -14 19 -20 10 -13 -21 14 -24 1 -5 -20 6 -8 -6 1
-28 20 -22 19 -49 46 -60 60 -11 14 -36 42 -56 62 -20 21 -33 40 -30 44 3 3 2
4 -4 3 -5 -2 -36 3 -68 11 l-59 14 4 50 c2 28 6 53 10 56 4 3 9 27 10 52 2 25
6 44 10 42 4 -3 10 12 14 33 4 21 10 43 14 48 4 6 6 18 5 28 -5 30 28 20 122
-37z m-150 -1 c0 -8 -4 -12 -9 -9 -5 3 -6 10 -3 15 9 13 12 11 12 -6z m-362
-86 c-50 -50 -130 -126 -180 -168 -101 -88 -347 -273 -353 -266 -6 6 29 40 42
40 6 1 10 7 8 14 -1 7 2 10 7 6 15 -9 37 11 268 240 135 134 207 213 200 217
-7 4 13 8 43 8 l55 0 -90 -91z m325 47 c0 -2 -8 -10 -17 -17 -16 -13 -17 -12
-4 4 13 16 21 21 21 13z m853 -173 c37 -54 47 -87 38 -121 -8 -26 -28 -71 -37
-81 -2 -2 -32 22 -66 55 -35 33 -80 74 -101 91 l-39 31 64 21 c34 12 70 26 78
31 25 16 36 11 63 -27z m-1483 -87 c0 -2 -8 -10 -17 -17 -16 -13 -17 -12 -4 4
13 16 21 21 21 13z m417 -88 c-3 -8 -6 -5 -6 6 -1 11 2 17 5 13 3 -3 4 -12 1
-19z m800 -209 c44 -17 31 -27 -45 -32 -57 -4 -81 -1 -91 9 -13 11 -10 16 20
28 33 15 67 13 116 -5z m46 -71 c20 -11 18 -12 -28 -24 -44 -12 -53 -11 -75 3
l-25 17 25 7 c39 11 79 10 103 -3z m-1830 -33 c-7 -21 -12 -19 -10 4 0 11 5
18 9 15 4 -3 5 -11 1 -19z m2540 -18 c57 -37 137 -111 137 -127 0 -15 -145
-12 -183 4 -39 16 -107 91 -107 118 0 21 31 36 73 37 16 1 51 -14 80 -32z
m-615 -7 c34 0 18 -14 -38 -32 -40 -13 -48 -13 -68 0 -12 8 -22 18 -22 23 0
11 39 18 74 13 16 -2 40 -4 54 -4z"/>
<path d="M2745 2195 c-5 -2 -27 -6 -47 -10 -41 -6 -98 -48 -98 -72 0 -11 5
-13 18 -8 40 17 121 36 185 42 37 3 67 10 67 15 0 16 -100 43 -125 33z"/>
<path d="M3018 1136 c-33 -22 -37 -22 -69 -9 -18 7 -40 12 -48 10 -9 -2 3 -9
27 -17 42 -13 51 -23 32 -35 -5 -3 -10 -11 -10 -17 0 -6 9 -3 20 7 18 17 21
17 45 1 30 -20 34 -3 4 18 l-21 14 24 15 c12 8 32 19 43 25 16 9 16 11 4 12
-9 0 -32 -11 -51 -24z"/>
<path d="M3385 1240 c3 -5 8 -10 11 -10 2 0 4 5 4 10 0 6 -5 10 -11 10 -5 0
-7 -4 -4 -10z"/>
<path d="M1989 1223 c-13 -16 -12 -17 4 -4 16 13 21 21 13 21 -2 0 -10 -8 -17
-17z"/>
<path d="M2120 836 c0 -2 8 -10 18 -17 15 -13 16 -12 3 4 -13 16 -21 21 -21
13z"/>
</g>
</svg>
